<?xml version="1.0" standalone="no"?>
<!DOCTYPE svg PUBLIC "-//W3C//DTD SVG 20010904//EN"
 "http://www.w3.org/TR/2001/REC-SVG-20010904/DTD/svg10.dtd">
<svg version="1.0" xmlns="http://www.w3.org/2000/svg"
 width="441.000000pt" height="441.000000pt" viewBox="0 0 441.000000 441.000000"
 preserveAspectRatio="xMidYMid meet">
<metadata>
Created by potrace 1.11, written by Peter Selinger 2001-2013
</metadata>
<g transform="translate(0.000000,441.000000) scale(0.100000,-0.100000)"
fill="#000000" stroke="none">
<path d="M242 2257 l3 -1950 373 0 373 0 846 847 c465 466 844 848 842 851 -2
2 -111 111 -241 243 -131 131 -238 245 -238 254 0 9 8 26 18 38 14 17 25 21
43 17 13 -4 147 -130 297 -280 l273 -274 -841 -840 c-462 -462 -840 -844 -840
-849 0 -10 1048 -10 1163 0 456 40 893 209 1197 464 192 161 315 320 425 547
99 205 158 426 181 675 15 158 9 501 -11 615 -3 17 -8 46 -11 65 -3 19 -8 46
-10 60 -3 14 -18 76 -34 137 -122 462 -417 831 -844 1058 l-58 32 -729 -730
c-401 -401 -729 -732 -729 -734 0 -3 106 -111 236 -241 198 -199 235 -239 232
-261 -3 -29 -44 -54 -67 -42 -8 5 -135 129 -283 277 l-268 269 751 751 752
752 -39 20 c-67 33 -319 110 -419 128 -49 8 -79 14 -100 18 -11 2 -42 7 -70
10 -27 3 -68 9 -90 12 -22 3 -500 7 -1063 8 l-1022 3 2 -1950z"/>
</g>
</svg>
